<?xml version="1.0" standalone="no"?>
<!DOCTYPE svg PUBLIC "-//W3C//DTD SVG 20010904//EN"
 "http://www.w3.org/TR/2001/REC-SVG-20010904/DTD/svg10.dtd">
<svg version="1.0" xmlns="http://www.w3.org/2000/svg"
 width="1280.000000pt" height="940.000000pt" viewBox="0 0 1280.000000 940.000000"
 preserveAspectRatio="xMidYMid meet">
<metadata>
Created by potrace 1.15, written by Peter Selinger 2001-2017
</metadata>
<g transform="translate(0.000000,940.000000) scale(0.100000,-0.100000)"
fill="#000000" stroke="none">
<path d="M3299 9390 c-112 -14 -292 -70 -397 -124 -230 -117 -495 -418 -732
-831 -61 -105 -340 -646 -644 -1248 l-141 -278 -40 5 c-97 14 -501 18 -690 6
-294 -18 -465 -35 -505 -52 -79 -34 -142 -150 -143 -268 -1 -46 4 -74 17 -96
48 -80 227 -156 656 -279 123 -35 401 -97 491 -110 l46 -7 7 -60 c3 -34 6
-124 6 -201 l0 -139 -50 -55 c-136 -149 -308 -489 -389 -768 -21 -75 -75 -349
-88 -454 l-8 -63 -75 -24 c-90 -29 -161 -79 -213 -154 -73 -105 -66 31 -97
-1901 -18 -1102 -25 -1764 -19 -1795 25 -135 128 -252 265 -299 43 -16 140
-19 854 -31 594 -10 819 -11 860 -3 107 22 212 95 263 182 53 91 56 118 64
584 l6 434 46 -52 c82 -94 144 -109 526 -134 358 -23 400 -32 482 -105 68 -59
134 -64 280 -21 171 51 205 53 783 59 300 2 766 -1 1035 -7 270 -6 708 -16
975 -22 605 -12 1353 -36 1526 -49 144 -10 217 -24 251 -46 41 -26 93 -18 150
25 29 21 74 44 100 50 55 13 247 17 684 14 l307 -3 -2 -372 -1 -373 31 -65
c51 -108 143 -186 259 -219 27 -8 309 -16 843 -25 907 -16 883 -17 992 55 96
65 161 171 175 285 7 67 58 3325 53 3444 -3 74 -10 108 -30 155 -18 41 -30 94
-38 170 -34 327 -130 730 -233 977 -111 268 -233 434 -421 573 -27 20 -27 20
-33 184 -6 159 -6 163 13 157 88 -28 321 -33 507 -11 438 51 786 147 863 238
93 110 89 250 -13 432 -28 50 -30 51 -158 60 -578 39 -821 44 -998 20 -156
-21 -174 -32 -212 -130 -40 -103 -61 -134 -103 -152 -60 -25 -72 -9 -121 178
-84 317 -211 675 -381 1074 -219 512 -387 854 -537 1095 -50 80 -109 177 -132
217 -83 145 -138 175 -420 232 -250 51 -537 74 -1056 86 -931 21 -1704 28
-3245 30 -965 1 -1807 4 -1870 8 -63 3 -145 2 -181 -3z"/>
</g>
</svg>
